# xmcd
#
# Track frame offsets: 
#        183
#        11133
#        23695
#        35133
#        44733
#        57820
#        69720
#        81420
#        93883
#        104220
#        115508
#        126783
#        139833
#        153095
#        169433
#        178620
#        191708
#        206488
#        220135
#        232510
#        247063
#        260115
#        273610
#        291838
#        310058
#        320788
#
# Disc length: 4456 seconds
#
# Revision: 5
# Processed by: cddbd v1.5.2PL0 Copyright (c) Steve Scherf et al.
# Submitted via: ExactAudioCopy v1.0b1
#
DISCID=8c11661a
DTITLE=Various Artist - Traumreise der Erinnerung - CD3
DYEAR=1990
DGENRE=Deutscher Schlager
TTITLE0=Lale Andersen - Einmal sehen wir uns wieder -1961
TTITLE1=Peter Alexander - Das tu´ ich alles aus Liebe -1957
TTITLE2=Lolita - Der weiße Mond von Maratonga -1957
TTITLE3=Gerd Böttcher - Ich such dich auf allen Wegen -1961
TTITLE4=Caterina Valente - Ganz Paris träumt von der Liebe -1966
TTITLE5=Ivo Robic - Morgen -1959
TTITLE6=Rita Paul - Spiel mir eine alte Melodie -1953
TTITLE7=Willy Hagara - Mandolinen und Mondschein -1959
TTITLE8=Connie Francis - Die Liebe ist ein seltsames Spiel -1960
TTITLE9=Blue Diamonds - Ramona -1961
TTITLE10=Melitta Berg - Nur du, du, du allein -1959
TTITLE11=Detlev Lais - Schau mich bitte nicht so an -1951
TTITLE12=Caterina Valente - Einen Ring mit zwei blutroten Steinen -195
TTITLE12=9
TTITLE13=René Carol - Deinen Namen, den hab' ich vergessen -1954
TTITLE14=Gitta Lind and Christa Williams - Vaya con Dios -1960
TTITLE15=Gerhard Wendland - Tanze mit mir in den Morgen -1961
TTITLE16=Udo Jürgens - Jenny -1970
TTITLE17=Heidi Brühl - Wir wollen niemals auseinandergehn -1960
TTITLE18=René Carol - Kein Land kann schöner sein -1960
TTITLE19=Jacqueline Boyer - Mitsou -1963
TTITLE20=Freddy Quinn - Vergangen, vergessen, vorüber -1965
TTITLE21=Mina - Heißer Sand -1963
TTITLE22=Michael Holm - Tränen lügen nicht -1974
TTITLE23=Karel Gott - Eine Liebe ist viele Tränen wert -1980
TTITLE24=Benny - Du bist sechzehn -1974
TTITLE25=Marianne Rosenberg - Er gehört zu mir -1988
EXTD=YEAR: 1990
EXTT0=
EXTT1=
EXTT2=
EXTT3=
EXTT4=
EXTT5=
EXTT6=
EXTT7=
EXTT8=
EXTT9=
EXTT10=
EXTT11=
EXTT12=
EXTT13=
EXTT14=
EXTT15=
EXTT16=
EXTT17=
EXTT18=
EXTT19=
EXTT20=
EXTT21=
EXTT22=
EXTT23=
EXTT24=
EXTT25=
PLAYORDER=
